<?xml version="1.0" encoding="utf-8"?>
<!DOCTYPE svg PUBLIC "-//W3C//DTD SVG 20010904//EN" "http://www.w3.org/TR/2001/REC-SVG-20010904/DTD/svg10.dtd">
<svg version="1.0" xmlns="http://www.w3.org/2000/svg" width="802pt" height="802pt" viewBox="0 0 802 802" preserveAspectRatio="xMidYMid meet">
<g fill="#CDD6F4FF">
<path d="M 251.50 688.38 C 194.40 685.33 139.32 671.87 107.22 653.13 C 83.94 639.53 61.54 617.16 45.79 591.75 C 25.20 558.56 10.09 513.13 3.45 464.50 C 1.26 448.41 0.29 406.69 1.99 401.53 C 3.73 396.25 9.58 390.12 15.50 387.35 L 20.50 385.02 L 288.00 384.99 C 574.56 384.96 564.13 385.13 585.47 380.06 C 593.85 378.07 606.33 373.65 608.60 371.87 C 609.36 371.27 608.21 367.99 604.87 361.25 C 597.39 346.14 594.92 335.69 594.30 316.50 C 593.90 304.24 594.17 298.28 595.43 291.00 C 597.49 279.11 603.54 260.87 609.05 249.89 C 613.96 240.09 624.11 224.01 625.38 224.00 C 626.98 224.00 637.39 230.28 644.87 235.78 C 661.82 248.23 678.11 268.45 686.09 286.96 C 689.90 295.80 694.00 309.84 694.00 314.04 C 694.00 316.09 694.33 316.20 698.25 315.58 C 700.59 315.20 708.35 314.47 715.50 313.95 C 738.36 312.30 761.83 315.41 779.08 322.38 C 787.65 325.84 801.00 334.93 801.00 337.31 C 801.00 340.38 796.03 352.01 791.12 360.43 C 785.77 369.62 771.94 384.63 762.15 391.88 C 742.74 406.27 720.24 413.64 692.02 414.87 L 677.54 415.50 L 670.79 432.00 C 661.73 454.15 644.12 489.36 633.62 506.34 C 616.92 533.34 602.00 552.63 581.14 574.19 C 540.71 615.99 490.30 647.08 431.50 666.46 C 401.95 676.21 369.92 682.62 331.00 686.58 C 317.05 688.00 265.98 689.16 251.50 688.38Z"/></g>
<g fill="#CDD6F4FF">
<path d="M 364.63 187.93 L 362.00 185.85 L 362.00 151.43 C 362.00 118.33 362.08 116.92 364.00 115.00 C 365.93 113.07 367.33 113.00 404.00 113.00 C 440.67 113.00 442.07 113.07 444.00 115.00 C 445.92 116.92 446.00 118.33 446.00 151.46 C 446.00 185.62 445.98 185.94 443.81 187.96 C 441.69 189.94 440.48 190.00 404.45 190.00 C 368.35 190.00 367.19 189.94 364.63 187.93Z"/></g>
<g fill="#CDD6F4FF">
<path d="M 364.63 368.93 L 362.00 366.85 L 362.00 332.43 C 362.00 299.33 362.08 297.92 364.00 296.00 C 365.93 294.07 367.33 294.00 404.00 294.00 C 440.67 294.00 442.07 294.07 444.00 296.00 C 445.92 297.92 446.00 299.33 446.00 332.46 C 446.00 366.62 445.98 366.94 443.81 368.96 C 441.69 370.94 440.48 371.00 404.45 371.00 C 368.35 371.00 367.19 370.94 364.63 368.93Z"/></g>
<g fill="#CDD6F4FF">
<path d="M 462.45 368.55 L 460.00 366.09 L 460.00 332.68 C 460.00 300.39 460.07 299.18 462.07 296.63 L 464.15 294.00 L 501.85 294.00 C 534.36 294.00 539.86 294.21 541.78 295.56 L 544.00 297.11 L 544.00 332.50 L 544.00 367.89 L 541.78 369.44 C 539.86 370.78 534.39 371.00 502.23 371.00 L 464.91 371.00 L 462.45 368.55Z"/></g>
<g fill="#CDD6F4FF">
<path d="M 167.45 368.55 L 165.00 366.09 L 165.00 332.50 L 165.00 298.91 L 167.45 296.45 L 169.91 294.00 L 207.23 294.00 C 239.39 294.00 244.86 294.22 246.78 295.56 L 249.00 297.11 L 249.00 332.50 L 249.00 367.89 L 246.78 369.44 C 244.86 370.78 239.39 371.00 207.23 371.00 L 169.91 371.00 L 167.45 368.55Z"/></g>
<g fill="#CDD6F4FF">
<path d="M 70.45 368.55 L 68.00 366.09 L 68.00 332.22 L 68.00 298.35 L 70.31 296.17 C 72.61 294.02 73.00 294.00 110.31 294.00 C 146.67 294.00 148.07 294.07 150.00 296.00 C 151.92 297.92 152.00 299.33 152.00 332.50 C 152.00 365.67 151.92 367.08 150.00 369.00 C 148.07 370.93 146.67 371.00 110.45 371.00 L 72.91 371.00 L 70.45 368.55Z"/></g>
<g fill="#CDD6F4FF">
<path d="M 266.42 368.51 L 263.92 366.02 L 264.21 331.92 L 264.50 297.82 L 266.86 295.91 C 269.09 294.11 271.29 294.00 306.39 294.00 C 338.41 294.00 343.86 294.22 345.78 295.56 L 348.00 297.11 L 348.00 332.50 L 348.00 367.89 L 345.78 369.44 C 343.86 370.78 338.39 371.00 306.23 371.00 L 268.91 371.00 L 266.42 368.51Z"/></g>
<g fill="#CDD6F4FF">
<path d="M 363.56 277.78 C 362.22 275.87 362.00 270.75 362.00 242.00 C 362.00 213.25 362.22 208.13 363.56 206.22 L 365.11 204.00 L 403.56 204.00 C 440.67 204.00 442.07 204.07 444.00 206.00 C 445.92 207.92 446.00 209.33 446.00 241.78 C 446.00 270.73 445.78 275.87 444.44 277.78 L 442.89 280.00 L 404.00 280.00 L 365.11 280.00 L 363.56 277.78Z"/></g>
<g fill="#CDD6F4FF">
<path d="M 265.87 278.35 C 264.79 277.04 264.44 269.92 264.21 244.10 C 264.05 226.17 264.16 210.52 264.46 209.32 C 265.81 203.91 265.07 204.00 306.42 204.00 C 342.23 204.00 344.80 204.12 346.35 205.83 C 347.82 207.46 348.00 211.47 348.00 242.26 C 348.00 272.38 347.80 277.06 346.43 278.43 C 345.05 279.80 340.00 280.00 306.05 280.00 C 271.19 280.00 267.11 279.83 265.87 278.35Z"/></g>
<g fill="#CDD6F4FF">
<path d="M 167.57 278.43 C 166.71 277.57 165.76 275.88 165.46 274.68 C 165.16 273.48 165.05 257.73 165.21 239.67 C 165.49 208.51 165.60 206.76 167.44 205.42 C 169.04 204.25 176.18 204.00 207.54 204.00 C 243.23 204.00 245.80 204.12 247.35 205.83 C 248.82 207.46 249.00 211.46 249.00 242.17 C 249.00 274.34 248.88 276.80 247.17 278.35 C 245.54 279.82 241.29 280.00 207.24 280.00 C 173.96 280.00 168.94 279.80 167.57 278.43Z"/></g>
</svg>
